<svg xmlns="http://www.w3.org/2000/svg" data-name="Layer 1" viewBox="-0.02 184.32 205.38 127.45"><path fill="#4400fe" d="M124.68 301.42c-16.62 0-30.57-10.86-32.64-25.63-1.17-8.38 1.75-15.45 7.94-21.16 13.26-12.23 26.48-24.51 39.88-36.58 2.74-2.46 2.74-3.91.21-6.45-4.79-4.79-9.17-10-13.83-14.92-2.52-2.65-3.28-5.64-1.85-8.89 1.48-3.4 4.56-3.79 7.85-3.29 18 2.74 36 5.3 53.89 8.29 8.77 1.47 15 8.84 15.58 17.75 1.27 17.68 2.41 35.37 3.61 53.06.22 3.32-.47 6.33-3.77 7.73s-6.31.5-8.76-2.2c-4.88-5.35-9.86-10.63-14.66-16.05-1.4-1.57-2.19-1.88-3.91-.26-10.82 10.1-21.77 20.06-32.65 30.1-1.24 1.15-2.71 2.59-1.51 4.37 1.43 2.12 3.43.82 4.92-.07 2.51-1.49 4.81-3.33 7.22-5 1.2-.81 2.66-1.47 3.8-.25s.28 2.65-.69 3.68c-8.34 8.84-17.55 16.11-30.63 15.77m-91.71 10.34c-13.38-.59-24.21-5.71-30.45-18.14a23.55 23.55 0 0 1 5.1-28q22.83-21.32 46-42.28c10.84-9.79 26.44-9.1 35.64 1.22s7.86 25.19-2.9 35.1c-11.69 10.76-23.42 21.47-35 32.3-1.63 1.52-4.93 3.3-2.66 5.9 2 2.25 4.54-.16 6.56-1.41s3.95-2.95 6-4.29a2.3 2.3 0 0 1 3 .16c1 1.09.61 2.34-.29 3.3-8.43 8.89-17.57 16.5-31 16.14"/></svg>